<?xml version="1.0" standalone="no"?>
<!DOCTYPE svg PUBLIC "-//W3C//DTD SVG 20010904//EN"
 "http://www.w3.org/TR/2001/REC-SVG-20010904/DTD/svg10.dtd">
<svg version="1.0" xmlns="http://www.w3.org/2000/svg"
 width="70.000000pt" height="70.000000pt" viewBox="0 0 70.000000 70.000000"
 preserveAspectRatio="xMidYMid meet">
<metadata>
Created by potrace 1.14, written by Peter Selinger 2001-2017
</metadata>
<g transform="translate(0.000000,70.000000) scale(0.100000,-0.100000)"
fill="#000000" stroke="none">
<path d="M170 671 c0 -5 -9 -13 -20 -16 -11 -4 -18 -10 -15 -15 3 -5 0 -10 -7
-12 -6 -2 -13 -15 -15 -28 -2 -13 -11 -32 -19 -41 -9 -10 -13 -23 -9 -28 3 -6
2 -11 -2 -11 -5 0 -14 -9 -21 -21 -11 -17 -11 -20 0 -14 7 3 5 0 -6 -9 -10 -8
-15 -19 -11 -25 3 -6 1 -11 -5 -11 -6 0 -8 -4 -5 -10 3 -5 2 -26 -4 -45 -5
-19 -6 -33 -3 -31 4 2 7 -26 7 -62 1 -71 5 -93 18 -103 5 -3 9 -13 11 -22 1
-9 12 -28 24 -42 12 -14 22 -30 22 -35 0 -6 3 -9 8 -8 4 2 24 -10 44 -26 22
-16 44 -26 53 -22 10 3 13 2 10 -4 -4 -7 3 -9 19 -6 14 3 26 0 26 -5 0 -5 5
-9 11 -9 5 0 7 4 4 10 -3 5 -1 10 4 10 6 0 11 -4 11 -9 0 -10 19 -9 38 2 6 5
12 4 12 -1 0 -5 7 -9 15 -9 8 0 12 4 9 9 -3 4 0 8 5 8 6 0 11 -5 11 -11 0 -6
7 -4 15 5 9 8 26 13 40 10 14 -2 35 1 48 7 21 12 21 11 7 -7 -9 -12 -4 -10 13
5 15 14 27 22 27 18 0 -4 15 2 33 12 17 10 31 24 29 31 -1 6 2 9 8 5 5 -3 13
2 16 12 3 10 11 28 16 40 6 12 8 28 5 36 -3 8 0 20 6 26 6 6 7 11 2 11 -6 0
-3 5 5 10 11 7 11 10 2 10 -10 0 -10 5 -2 20 8 14 8 20 0 20 -8 0 -8 6 0 20 8
14 8 20 0 20 -8 0 -8 6 0 20 6 11 7 20 3 20 -4 0 -9 21 -10 47 0 26 -6 49 -12
51 -9 3 -9 8 0 18 8 10 8 14 0 14 -6 0 -11 7 -11 15 0 8 -4 15 -10 15 -5 0
-10 6 -10 14 0 8 -5 16 -10 18 -6 2 -12 13 -13 26 0 12 -5 22 -10 22 -4 0 -6
4 -3 9 3 5 -1 11 -9 15 -8 3 -15 11 -15 19 0 7 -10 13 -22 14 -25 2 -57 -26
-50 -45 2 -6 -2 -12 -9 -12 -7 0 -10 -3 -6 -6 3 -3 -1 -13 -9 -23 -12 -14 -30
-17 -90 -15 -42 1 -72 -1 -69 -7 4 -5 -1 -6 -9 -3 -9 3 -13 11 -10 18 3 6 -2
2 -10 -8 -16 -19 -16 -19 -16 2 0 12 -5 22 -11 22 -5 0 -7 5 -4 10 3 6 1 10
-5 10 -6 0 -8 5 -5 10 3 6 1 10 -4 10 -6 0 -10 6 -8 13 1 6 -6 11 -15 11 -10
-1 -16 2 -13 6 3 5 1 11 -5 15 -5 3 -10 2 -10 -4z"/>
</g>
</svg>
